<svg width="640" height="640" viewBox="0 0 640 640" fill="none" xmlns="http://www.w3.org/2000/svg">
<circle cx="320" cy="320" r="316" fill="black" stroke="white" stroke-width="8"/>
<path d="M555.986 290.886C554.586 291.986 553.086 293.086 551.486 294.186C543.586 299.286 532.986 303.386 518.686 304.086C477.386 306.186 441.086 235.186 383.186 238.086C368.386 238.786 347.886 242.386 320.186 269.886C292.486 242.286 272.086 238.786 257.186 238.086C199.285 235.186 162.986 306.186 121.686 304.086C107.386 303.386 96.6855 299.286 88.8855 294.186C87.2855 293.086 85.7855 291.986 84.3855 290.886C71.1855 282.486 75.4855 298.086 76.3855 301.186C88.4855 338.486 119.686 398.287 196.086 402.087C256.886 405.187 298.786 377.387 320.186 346.687C341.586 377.287 383.486 405.087 444.286 402.087C520.686 398.287 551.886 338.486 563.986 301.186C564.986 298.086 569.286 282.486 555.986 290.886Z" fill="white"/>
</svg>
