<svg width="491" height="165" viewBox="0 0 491 165" fill="none" xmlns="http://www.w3.org/2000/svg">
<path d="M480.986 52.947C479.586 54.047 478.086 55.147 476.486 56.247C468.586 61.347 457.986 65.447 443.686 66.147C402.386 68.247 366.086 -2.75302 308.186 0.146982C293.386 0.846982 272.886 4.44699 245.186 31.947C217.486 4.34698 197.086 0.846982 182.186 0.146982C124.286 -2.75302 87.986 68.247 46.686 66.147C32.386 65.447 21.686 61.347 13.886 56.247C12.286 55.147 10.786 54.047 9.38599 52.947C-3.81401 44.547 0.485992 60.147 1.38599 63.247C13.486 100.547 44.686 160.347 121.086 164.147C181.886 167.247 223.786 139.447 245.186 108.747C266.586 139.347 308.486 167.147 369.286 164.147C445.686 160.347 476.886 100.547 488.986 63.247C489.986 60.147 494.286 44.547 480.986 52.947Z" fill="black"/>
</svg>
